# xmcd
#
# Track frame offsets:
#	150
#	16427
#	35729
#	56233
#	74414
#	87985
#	100452
#	117927
#	150474
#	175273
#	189878
#
# Disc length: 2781 seconds
#
# Revision: 1
# Processed by: cddbd v1.5.1PL0 Copyright (c) Steve Scherf et al.
# Submitted via: audiograbber 1.83.01
#
DISCID=930adb0b
DTITLE=Santana - Het Beste van Santana
DYEAR=2005
DGENRE=Rock
TTITLE0=Europa (Earths Cry Heavens Smile)
TTITLE1=Oye Como Va
TTITLE2=Samba Pa Ti
TTITLE3=She's Not There
TTITLE4=Evil Ways
TTITLE5=Jin-Go-Lo-Ba
TTITLE6=Hold On
TTITLE7=One Chain (Don't Make No Prison)
TTITLE8=Aqua Marine
TTITLE9=Black Magic Woman
TTITLE10=Well All Right
EXTD=Ripped by DjMaxX!
EXTT0=
EXTT1=
EXTT2=
EXTT3=
EXTT4=
EXTT5=
EXTT6=
EXTT7=
EXTT8=
EXTT9=
EXTT10=
PLAYORDER=
